<?xml version="1.0" standalone="no"?>
<!DOCTYPE svg PUBLIC "-//W3C//DTD SVG 20010904//EN"
 "http://www.w3.org/TR/2001/REC-SVG-20010904/DTD/svg10.dtd">
<svg version="1.0" xmlns="http://www.w3.org/2000/svg"
 width="554.000000pt" height="211.000000pt" viewBox="0 0 554.000000 211.000000"
 preserveAspectRatio="xMidYMid meet">

<g transform="translate(0.000000,211.000000) scale(0.100000,-0.100000)"
fill="#000000" stroke="none">
<path d="M0 1055 l0 -1055 2770 0 2770 0 0 1055 0 1055 -2770 0 -2770 0 0
-1055z m386 676 c59 -27 118 -84 145 -139 21 -43 24 -63 27 -239 l4 -193 41
35 c71 61 174 80 274 50 61 -18 96 -45 129 -96 47 -75 55 -134 52 -395 l-3
-239 -122 -3 -123 -3 0 213 c0 117 -5 230 -10 250 -22 77 -108 103 -170 52
-60 -51 -64 -69 -70 -299 l-5 -210 -120 0 -120 0 -3 618 c-2 694 -10 636 74
598z m2305 -8 c63 -32 116 -96 138 -168 19 -61 21 -92 21 -332 l0 -264 121
140 121 141 149 0 c138 0 149 -1 149 -18 0 -10 -68 -89 -151 -176 l-151 -156
118 -128 c181 -194 204 -220 204 -237 0 -13 -21 -15 -157 -13 l-158 3 -120
149 -120 149 -5 -149 -5 -149 -119 -3 c-89 -2 -121 1 -128 10 -4 7 -8 287 -8
622 l0 608 34 -6 c19 -4 49 -14 67 -23z m-271 -93 c50 -26 73 -60 73 -111 0
-47 -25 -85 -74 -114 -44 -26 -168 -27 -216 -2 -68 36 -93 110 -58 176 34 67
188 95 275 51z m-726 -394 c28 -13 71 -41 96 -63 l44 -40 26 36 c27 37 91 74
148 86 l32 7 0 -386 0 -386 -22 0 c-40 0 -123 46 -156 86 l-32 38 -32 -30
c-86 -80 -170 -109 -288 -101 -218 15 -356 195 -336 437 14 171 126 307 280
340 67 15 183 3 240 -24z m2361 8 c117 -40 208 -130 241 -239 21 -73 18 -213
-6 -279 -56 -148 -178 -232 -355 -243 -202 -13 -351 63 -423 217 -34 72 -43
217 -18 300 41 139 164 239 321 264 55 8 189 -3 240 -20z m865 16 c112 -21
210 -84 265 -171 63 -98 74 -281 23 -390 -69 -151 -219 -228 -418 -216 -242
14 -381 158 -381 392 0 102 18 166 67 237 82 118 270 181 444 148z m-2657 -20
c63 -24 126 -83 159 -149 22 -44 23 -55 23 -311 l0 -265 -122 -3 -123 -3 0
376 c0 206 2 375 5 375 2 0 29 -9 58 -20z"/>
<path d="M1544 1046 c-120 -52 -131 -260 -18 -334 40 -26 120 -30 163 -7 98
50 126 200 54 293 -44 58 -129 78 -199 48z"/>
<path d="M3844 1060 c-72 -22 -121 -119 -111 -219 11 -104 82 -168 177 -159
97 10 144 70 145 188 0 120 -44 182 -140 194 -22 3 -54 1 -71 -4z"/>
<path d="M4775 1059 c-38 -11 -89 -64 -104 -108 -29 -87 -2 -198 59 -241 44
-31 116 -38 164 -15 104 49 128 225 45 320 -42 48 -99 63 -164 44z"/>
</g>
</svg>
