<?xml version="1.0" standalone="no"?>
<!DOCTYPE svg PUBLIC "-//W3C//DTD SVG 20010904//EN"
 "http://www.w3.org/TR/2001/REC-SVG-20010904/DTD/svg10.dtd">
<svg version="1.0" xmlns="http://www.w3.org/2000/svg"
 width="610.000000pt" height="283.000000pt" viewBox="0 0 610.000000 283.000000"
 preserveAspectRatio="xMidYMid meet">

<g transform="translate(0.000000,283.000000) scale(0.100000,-0.100000)"
fill="#000000" stroke="none">
<path d="M602 1583 l3 -618 119 -3 c89 -2 121 1 128 10 4 7 8 101 8 208 0 170
3 200 20 237 30 68 98 98 164 73 46 -17 51 -39 56 -290 l5 -235 123 -3 122 -3
0 260 c0 310 -6 337 -85 417 -54 55 -104 74 -189 74 -54 0 -134 -28 -182 -65
l-34 -26 0 145 c0 262 -39 351 -180 415 -88 40 -80 100 -78 -596z"/>
<path d="M2892 1583 l3 -618 120 0 120 0 5 154 5 154 123 -157 124 -156 155 2
c105 2 158 7 160 14 2 7 -68 89 -157 184 -88 96 -160 177 -160 182 0 4 68 78
151 163 103 105 149 159 145 170 -4 12 -30 15 -153 15 l-149 0 -119 -142 -120
-141 -5 294 c-6 327 -6 332 -77 409 -37 42 -120 90 -156 90 -16 0 -17 -34 -15
-617z"/>
<path d="M2497 2079 c-42 -22 -77 -71 -77 -107 0 -43 29 -88 73 -113 55 -31
162 -33 221 -5 104 52 98 187 -11 232 -49 21 -160 17 -206 -7z"/>
<path d="M1730 1705 c-108 -31 -176 -91 -228 -203 -35 -75 -43 -214 -18 -305
48 -174 194 -277 376 -264 93 6 170 39 225 94 l40 41 37 -43 c39 -44 84 -71
137 -81 l31 -7 0 387 c0 241 -4 386 -10 386 -38 0 -124 -46 -158 -85 l-39 -44
-38 39 c-80 82 -233 119 -355 85z m265 -220 c78 -45 108 -167 63 -255 -32 -63
-77 -90 -148 -90 -43 0 -66 6 -91 23 -105 69 -102 258 5 322 55 33 115 33 171
0z"/>
<path d="M4088 1710 c-201 -36 -330 -206 -315 -415 7 -107 39 -179 111 -250
77 -75 145 -104 266 -112 267 -17 443 121 457 361 12 186 -79 334 -242 395
-64 24 -203 35 -277 21z m154 -200 c63 -18 118 -107 118 -192 0 -82 -65 -170
-133 -183 -154 -29 -254 140 -176 297 36 72 107 101 191 78z"/>
<path d="M5018 1710 c-122 -22 -228 -100 -281 -209 -30 -62 -32 -72 -32 -176
0 -100 3 -116 29 -173 37 -80 122 -161 203 -193 49 -19 77 -23 183 -23 153 0
211 19 296 96 89 82 131 191 121 317 -13 168 -98 286 -244 341 -62 23 -202 34
-275 20z m193 -221 c51 -36 72 -91 67 -180 -3 -83 -17 -113 -72 -153 -39 -29
-133 -29 -173 0 -98 73 -109 228 -22 315 20 20 48 40 61 42 42 9 109 -2 139
-24z"/>
<path d="M2492 1338 l3 -373 123 -3 122 -3 0 259 c0 289 -5 319 -66 390 -31
37 -103 80 -162 97 l-22 6 2 -373z"/>
</g>
</svg>
